<svg xmlns="http://www.w3.org/2000/svg" viewBox="0 0 611.606 174.905"><defs><style>.cls-1{fill:#93c955}.cls-3{fill:#505050}.cls-6{fill:none}</style></defs><g id="Gruppe_89" data-name="Gruppe 89" transform="translate(-451.504 -1115.895)"><g id="Seed" transform="translate(451.504 1115.895)"><g id="Gruppe_31" data-name="Gruppe 31" transform="translate(52.016 39.095)"><g id="Gruppe_29" data-name="Gruppe 29" transform="translate(3.564 3.564)"><g id="Gruppe_27" data-name="Gruppe 27"><path id="Pfad_21" data-name="Pfad 21" class="cls-1" d="M49.9 82.3c0 24.281 14.146 44 31.521 44v-88c-17.487 0-31.521 19.715-31.521 44z" transform="translate(-49.9 -38.3)"/></g><g id="Gruppe_28" data-name="Gruppe 28" transform="translate(31.41)"><path id="Pfad_22" data-name="Pfad 22" d="M78.1 38.3v88.1c17.376 0 31.521-19.715 31.521-44 0-24.385-14.145-44.1-31.521-44.1z" transform="translate(-78.1 -38.3)" fill="#86b74d"/></g></g><g id="Gruppe_30" data-name="Gruppe 30"><path id="Pfad_23" data-name="Pfad 23" class="cls-3" d="M81.674 130.221C62.4 130.221 46.7 108.946 46.7 82.66c0-26.175 15.7-47.56 34.974-47.56s34.974 21.274 34.974 47.56c0 26.175-15.593 47.561-34.974 47.561zm0-88.1c-15.371 0-27.957 18.267-27.957 40.543 0 22.388 12.586 40.543 27.957 40.543 15.482 0 27.957-18.155 27.957-40.543.111-22.28-12.475-40.547-27.957-40.547z" transform="translate(-46.7 -35.1)"/></g></g><g id="Gruppe_32" data-name="Gruppe 32" transform="translate(0 154.376)"><path id="Pfad_24" data-name="Pfad 24" class="cls-3" d="M169.3 145.506H3.453a3.453 3.453 0 110-6.906H169.3a3.453 3.453 0 110 6.906z" transform="translate(0 -138.6)"/></g><g id="Gruppe_42" data-name="Gruppe 42" transform="translate(38.638 75.072)"><g id="Gruppe_34" data-name="Gruppe 34" transform="translate(48.908 3.564)"><path id="Pfad_26" data-name="Pfad 26" d="M82.164 148.9a3.455 3.455 0 01-2.45-1 3.838 3.838 0 01-1.114-2.562c.446-14.146 2.9-48.674 19.381-65.6a29.1 29.1 0 0118.712-9.138h.334a3.566 3.566 0 013.453 2.9c1.782 9.579 6.349 42.548-8.688 61.483-6.683 8.465-16.6 13.255-29.4 13.923z" transform="translate(-78.6 -70.6)" fill="#a87648"/></g><g id="Gruppe_41" data-name="Gruppe 41"><g id="Gruppe_40" data-name="Gruppe 40"><g id="Gruppe_35" data-name="Gruppe 35" transform="translate(3.851 3.564)"><path id="Pfad_27" data-name="Pfad 27" d="M78.3 148.9c-12.7-.78-22.611-5.458-29.4-13.923-15.038-18.933-10.471-51.791-8.689-61.477a3.566 3.566 0 013.453-2.9H44a29.1 29.1 0 0118.71 9.133c16.485 16.819 19.046 51.459 19.269 65.6a3.226 3.226 0 01-1.114 2.562 3.455 3.455 0 01-2.45 1z" transform="translate(-38.147 -70.6)" fill="#bf9266"/></g><g id="Gruppe_39" data-name="Gruppe 39"><g id="Gruppe_36" data-name="Gruppe 36" transform="translate(7.356 7.017)"><path id="Pfad_28" data-name="Pfad 28" class="cls-6" d="M59.9 81.831A26.493 26.493 0 0043.3 73.7c-1.782 9.579-6.015 40.989 8.02 58.7 6.126 7.685 15.148 11.918 26.843 12.586-.218-11.251-2.222-46.786-18.263-63.155z" transform="translate(-41.294 -73.7)"/></g><g id="Gruppe_37" data-name="Gruppe 37" transform="translate(52.584 7.128)"><path id="Pfad_29" data-name="Pfad 29" class="cls-6" d="M100.167 81.82c-16.039 16.373-18.044 51.9-18.267 63.265 11.7-.668 20.717-4.9 26.843-12.586 14.034-17.821 9.8-49.12 8.02-58.7a24.551 24.551 0 00-16.596 8.021z" transform="translate(-81.9 -73.8)"/></g><g id="Gruppe_38" data-name="Gruppe 38"><path id="Pfad_30" data-name="Pfad 30" class="cls-3" d="M128.931 73.192a7.041 7.041 0 00-6.906-5.792h-.668a33.073 33.073 0 00-20.94 10.136C90.726 87.449 85.6 102.82 82.93 117.077c-2.673-14.257-7.8-29.628-17.487-39.541A32.53 32.53 0 0044.5 67.4h-.668a7.023 7.023 0 00-6.906 5.792C29.912 111.73 41.161 131 46.4 137.459c7.351 9.356 18.155 14.48 31.855 15.259H87.5c13.811-.78 24.5-5.9 31.855-15.259 5.345-6.571 16.593-25.84 9.576-64.267zm-76.854 59.924c-14.034-17.71-9.8-49.12-8.02-58.7a25.67 25.67 0 0116.6 8.131c16.039 16.373 18.044 51.9 18.267 63.265-11.699-.778-20.724-5.012-26.847-12.696zm61.929 0c-6.126 7.685-15.148 11.918-26.843 12.586.223-11.361 2.228-46.892 18.267-63.265a26.492 26.492 0 0116.6-8.131c1.777 9.694 6.121 40.988-8.025 58.81z" transform="translate(-34.69 -67.4)"/></g></g></g></g></g><g id="Gruppe_44" data-name="Gruppe 44" transform="translate(83.537 75.183)"><g id="Gruppe_43" data-name="Gruppe 43"><path id="Pfad_31" data-name="Pfad 31" class="cls-3" d="M78.453 125.419A3.47 3.47 0 0175 121.966V70.953a3.453 3.453 0 116.906 0v50.9a3.424 3.424 0 01-3.453 3.566z" transform="translate(-75 -67.5)"/></g></g><g id="Gruppe_45" data-name="Gruppe 45" transform="translate(82.868)"><path id="Pfad_32" data-name="Pfad 32" class="cls-3" d="M77.853 28.737a3.47 3.47 0 01-3.453-3.453V3.453a3.453 3.453 0 116.906 0v21.72a3.363 3.363 0 01-3.453 3.564z" transform="translate(-74.4)"/></g><g id="Gruppe_46" data-name="Gruppe 46" transform="translate(113.276 17.598)"><path id="Pfad_33" data-name="Pfad 33" class="cls-3" d="M105.153 30.837a3.455 3.455 0 01-2.45-1 3.5 3.5 0 010-4.9l8.131-8.131a3.465 3.465 0 114.9 4.9l-8.134 8.128a3.455 3.455 0 01-2.447 1.003z" transform="translate(-101.7 -15.8)"/></g><g id="Gruppe_47" data-name="Gruppe 47" transform="translate(44.442 17.598)"><path id="Pfad_34" data-name="Pfad 34" class="cls-3" d="M51.484 30.837a3.455 3.455 0 01-2.45-1L40.9 21.7a3.465 3.465 0 014.9-4.9l8.131 8.131a3.5 3.5 0 010 4.9 3.455 3.455 0 01-2.447 1.006z" transform="translate(-39.9 -15.8)"/></g><g id="Gruppe_49" data-name="Gruppe 49" transform="translate(45.204 167.999)"><path id="Pfad_24-2" data-name="Pfad 24" class="cls-3" d="M81.24 145.506H1.657c-.909 0-1.657-1.559-1.657-3.453s.748-3.453 1.657-3.453H81.24c.909 0 1.657 1.559 1.657 3.453s-.749 3.453-1.657 3.453z" transform="translate(0 -138.6)"/></g></g><g id="Gruppe_51" data-name="Gruppe 51" transform="translate(628.602 975.273)"><path id="Pfad_55" data-name="Pfad 55" class="cls-1" d="M5.661-7.437C8.214-4.884 16.206 1.11 30.636 1.11c16.317 0 26.2-11.544 26.2-22.977 0-15.1-13.764-21.867-22.422-25.308-8.769-3.552-12.1-6.66-12.1-10.767 0-3 3-5.661 6.993-5.661 6.771 0 14.874 6.1 15.873 6.66 1 .777 3-.222 3.774-1.443l5.661-8.547c.444-.777.666-2.775-.666-3.552-3.33-2.442-12.21-8.325-23.754-8.325-17.095 0-25.644 11.1-25.644 22.089 0 13.32 11.988 20.757 21.534 24.531 7.548 3 11.433 6.549 11.433 11.211 0 3.885-3.219 6.66-7.659 6.66-7.326 0-15.318-5.883-15.762-6.105-.777-.555-2.886-.777-3.774.666l-5.217 9.213c-.888 1.554-.555 1.998.555 3.108zm64.713 5.328A2.108 2.108 0 0072.483 0h45.954a2.108 2.108 0 002.109-2.109v-12.1a2.108 2.108 0 00-2.109-2.109H87.69V-31.3H113a2.108 2.108 0 002.109-2.109v-12.1a2.183 2.183 0 00-2.109-2.11H87.69v-13.764h30.747a2.108 2.108 0 002.109-2.109v-12.1a2.108 2.108 0 00-2.109-2.109H72.483a2.108 2.108 0 00-2.109 2.109zm65.046 0A2.108 2.108 0 00137.529 0h45.954a2.108 2.108 0 002.109-2.109v-12.1a2.108 2.108 0 00-2.109-2.109h-30.747V-31.3h25.308a2.108 2.108 0 002.109-2.109v-12.1a2.183 2.183 0 00-2.109-2.109h-25.308v-13.765h30.747a2.108 2.108 0 002.109-2.109v-12.1a2.108 2.108 0 00-2.109-2.109h-45.954a2.108 2.108 0 00-2.109 2.109zm65.046 0a2.087 2.087 0 002 2.109h27.084a39.011 39.011 0 0038.961-38.961A38.965 38.965 0 00229.548-77.7h-27.084a2.087 2.087 0 00-2 2.109zm17.316-14.319v-44.955h10.656c12.543 0 21.645 9.879 21.645 22.422 0 12.654-9.1 22.533-21.645 22.533z" transform="translate(166 264.69)"/><path id="Pfad_54" data-name="Pfad 54" class="cls-3" d="M23.643-.444a2.132 2.132 0 002 1.554h1.776A2.254 2.254 0 0029.3-.111l20.2-45.4h.333l20.319 45.4a2.254 2.254 0 001.887 1.221h1.776a2.132 2.132 0 002-1.554l20.977-74.592a1.935 1.935 0 00-2-2.664H81.807a2.281 2.281 0 00-2 1.554l-9.544 37.629h-.444l-17.2-39.072a1.887 1.887 0 00-1.887-1.221h-2a2.116 2.116 0 00-1.887 1.221l-17.2 39.072h-.444l-9.554-37.629a2.281 2.281 0 00-2-1.554H4.662a1.935 1.935 0 00-2 2.664zm85.026-1.665A2.108 2.108 0 00110.778 0h13.1a2.183 2.183 0 002.109-2.109v-26.085h11.653a24.967 24.967 0 0024.753-24.975A24.826 24.826 0 00137.529-77.7h-26.751a2.108 2.108 0 00-2.109 2.109zM125.985-44.4v-16.983h10.545c4.773 0 8.769 3.552 8.769 8.214a8.717 8.717 0 01-8.769 8.769z" transform="translate(0 264.69)"/><path id="Pfad_53" data-name="Pfad 53" class="cls-3" d="M7.992-.144a.692.692 0 00.648.5h.576a.686.686 0 00.612-.4l6.228-17.892h.18l6.336 17.9a.686.686 0 00.612.4h.576a.692.692 0 00.648-.5l6.8-24.192a.628.628 0 00-.648-.864h-2.408a.74.74 0 00-.648.5L23.22-8.172h-.144l-5.94-16.992a.647.647 0 00-.612-.4h-.648a.647.647 0 00-.612.4L9.4-8.172h-.148L4.9-24.7a.74.74 0 00-.648-.5H1.836a.628.628 0 00-.648.864zM31.68-7.236A7.464 7.464 0 0038.952.36a7.464 7.464 0 007.272-7.6 7.447 7.447 0 00-7.272-7.524 7.447 7.447 0 00-7.272 7.528zm3.2 0a4.234 4.234 0 014.068-4.392 4.234 4.234 0 014.072 4.392 4.287 4.287 0 01-4.068 4.5 4.287 4.287 0 01-4.068-4.5zM49.824-.684a.708.708 0 00.684.684h1.728c.576 0 .972-.072.972-.684v-9.144a3.794 3.794 0 013.24-1.764 3.294 3.294 0 011.224.252.614.614 0 00.864-.324l.864-1.764c.4-.972-1.26-1.332-2.628-1.332a5.131 5.131 0 00-4.212 2.088l-.4-1.224a.684.684 0 00-.612-.5h-1.04a.708.708 0 00-.684.684zM60.768-7.2c0 4.14 2.916 7.56 6.732 7.56a6.436 6.436 0 004.572-2.016l.288 1.044c.108.36.324.612.648.612h1.08a.708.708 0 00.684-.684v-23.832a.708.708 0 00-.684-.684H72a.708.708 0 00-.684.684v10.548a8.67 8.67 0 00-3.456-.792 7.264 7.264 0 00-7.092 7.56zm3.348 0a4.182 4.182 0 014.1-4.428 5.973 5.973 0 013.132.864V-4.9a3.874 3.874 0 01-3.42 2.16c-2.3.004-3.812-2.048-3.812-4.46zM80.1-.684a.684.684 0 00.684.684h2.34a.708.708 0 00.684-.684v-8.46h5.22a8.1 8.1 0 008.028-8.1 8.052 8.052 0 00-8.064-7.956h-8.208a.684.684 0 00-.684.684zm3.708-11.988V-21.6h4.968a4.437 4.437 0 014.572 4.32 4.586 4.586 0 01-4.572 4.608zM99.468-.684a.708.708 0 00.684.684h1.728c.576 0 .972-.072.972-.684v-9.144a3.794 3.794 0 013.24-1.764 3.294 3.294 0 011.224.252.614.614 0 00.864-.324l.864-1.764c.4-.972-1.26-1.332-2.628-1.332a5.131 5.131 0 00-4.212 2.088l-.4-1.224a.684.684 0 00-.612-.5h-1.044a.708.708 0 00-.684.684zM110.412-7.2c0 4.14 2.88 7.56 7.236 7.56a8.272 8.272 0 005.328-1.8.559.559 0 00.072-.936l-1.008-1.368c-.288-.36-.54-.216-.972.036a6.142 6.142 0 01-3.2 1.044 4.169 4.169 0 01-4.14-3.852h9.792a.662.662 0 00.648-.612 8.828 8.828 0 00.072-.972 6.483 6.483 0 00-6.624-6.66c-4.324 0-7.204 3.492-7.204 7.56zm3.488-1.584a3.643 3.643 0 013.672-3.2 3.406 3.406 0 013.312 3.2zm13.14 7.668A7.551 7.551 0 00131.8.36c3.2 0 5.328-1.98 5.328-4.212 0-2.7-2.16-3.816-4.788-4.968-1.4-.612-2.3-1.008-2.3-1.944 0-.54.4-1.08 1.62-1.08a8.229 8.229 0 012.952.756.757.757 0 00.936-.288l.648-1.224a.8.8 0 00-.288-1.044 8.073 8.073 0 00-4.248-1.116c-3.456 0-4.932 2.16-4.932 3.96 0 2.376 1.872 3.744 4.1 4.716 1.98.9 2.772 1.368 2.772 2.34 0 .792-.684 1.224-1.764 1.224a7.459 7.459 0 01-3.348-.936.621.621 0 00-.9.18l-.756 1.4a.606.606 0 00.212.76zm12.888 0A7.551 7.551 0 00144.684.36c3.2 0 5.328-1.98 5.328-4.212 0-2.7-2.16-3.816-4.788-4.968-1.4-.612-2.3-1.008-2.3-1.944 0-.54.4-1.08 1.62-1.08a8.229 8.229 0 012.952.756.757.757 0 00.936-.288l.648-1.224a.8.8 0 00-.288-1.044 8.073 8.073 0 00-4.248-1.116c-3.456 0-4.932 2.16-4.932 3.96 0 2.376 1.872 3.744 4.1 4.716 1.98.9 2.772 1.368 2.772 2.34 0 .792-.684 1.224-1.764 1.224a7.459 7.459 0 01-3.348-.936.621.621 0 00-.9.18l-.756 1.4a.606.606 0 00.216.76zm21.2-1.368A11.659 11.659 0 00168.876.36c4.68 0 8.028-3.06 8.028-6.8 0-4.392-3.564-6.372-7.74-8.064-2.988-1.224-4.572-2.484-4.572-4.536 0-1.332 1.044-3.24 4.068-3.24 2.088 0 4.608 1.656 4.86 1.8a.851.851 0 001.26-.36c.288-.432.612-.936.9-1.368a.855.855 0 00-.216-1.224 12.2 12.2 0 00-6.66-2.124c-5.724 0-7.884 3.852-7.884 6.66 0 4.176 2.88 6.084 6.552 7.632 3.564 1.476 5.436 2.844 5.436 5 0 1.836-1.584 3.348-4.068 3.348-2.772 0-5.544-2.3-5.76-2.484a.815.815 0 00-1.224.288c-.324.468-.612 1.008-.936 1.476a.757.757 0 00.216 1.152zm19.944-1.44c0 2.556.828 4.284 3.672 4.284a11.041 11.041 0 004.212-1.08.6.6 0 00.324-.864l-.648-1.584a.539.539 0 00-.828-.324 5.865 5.865 0 01-2.2.648c-.684 0-1.152-.216-1.152-1.44v-7.128h3.672a.684.684 0 00.684-.684v-1.62a.662.662 0 00-.684-.684h-3.672v-4.032a.677.677 0 00-.648-.684l-2.052.036a.708.708 0 00-.684.684v4h-1.512a.662.662 0 00-.684.684v1.62a.684.684 0 00.684.684h1.512zm10.476-.54A4.471 4.471 0 00196.2.36a6.212 6.212 0 004.428-1.836l.36.972c.144.36.288.5.612.5h1.008a.708.708 0 00.684-.684v-7.664c0-3.6-.432-6.408-5.04-6.408a14.851 14.851 0 00-4.968.828.646.646 0 00-.468.828l.288 1.332c.108.4.36.684.792.576a15.3 15.3 0 014.032-.648c1.836 0 2.268.9 2.232 3.168a10.36 10.36 0 00-2.844-.432c-3.672 0-5.76 2.016-5.76 4.644zm3.132-.036c0-1.476 1.188-2.376 2.916-2.376a5.418 5.418 0 012.52.576V-4a4.26 4.26 0 01-3.24 1.8 2.166 2.166 0 01-2.188-2.3zm13.14 3.816a.708.708 0 00.684.684h1.728c.576 0 .972-.072.972-.684v-9.144a3.794 3.794 0 013.24-1.764 3.294 3.294 0 011.224.252.614.614 0 00.864-.324l.864-1.764c.4-.972-1.26-1.332-2.628-1.332a5.131 5.131 0 00-4.212 2.088l-.4-1.224a.684.684 0 00-.612-.5H208.5a.708.708 0 00-.684.684zm13.032-3.24c0 2.556.828 4.284 3.672 4.284a11.041 11.041 0 004.212-1.08.6.6 0 00.324-.864l-.648-1.584a.539.539 0 00-.828-.324 5.865 5.865 0 01-2.2.648c-.684 0-1.152-.216-1.152-1.44v-7.128h3.672a.684.684 0 00.684-.684v-1.62a.662.662 0 00-.684-.684h-3.672v-4.032a.677.677 0 00-.648-.684l-2.052.036a.708.708 0 00-.684.684v4h-1.512a.662.662 0 00-.684.684v1.62a.684.684 0 00.684.684h1.512zM231.336-7.2c0 4.14 2.88 7.56 7.236 7.56a8.272 8.272 0 005.328-1.8.559.559 0 00.072-.936l-1.008-1.368c-.288-.36-.54-.216-.972.036a6.142 6.142 0 01-3.2 1.044 4.169 4.169 0 01-4.14-3.852h9.792a.662.662 0 00.648-.612 8.828 8.828 0 00.072-.972 6.483 6.483 0 00-6.624-6.66c-4.324 0-7.204 3.492-7.204 7.56zm3.492-1.584a3.643 3.643 0 013.672-3.2 3.406 3.406 0 013.312 3.2zm13.788 8.1A.708.708 0 00249.3 0h1.728c.572 0 .972-.072.972-.684v-9.144a3.794 3.794 0 013.24-1.764 3.294 3.294 0 011.224.252.614.614 0 00.864-.324l.864-1.764c.4-.972-1.26-1.332-2.628-1.332a5.131 5.131 0 00-4.212 2.088l-.4-1.224a.684.684 0 00-.612-.5h-1.04a.708.708 0 00-.684.684zm24.624 0a.708.708 0 00.684.684h2.376a.708.708 0 00.684-.684v-21.132h5.868a.684.684 0 00.684-.684v-2.016a.684.684 0 00-.684-.684h-15.48a.684.684 0 00-.684.684v2.016a.684.684 0 00.684.684h5.868zm12.672 0A.708.708 0 00286.6 0h2.052a.653.653 0 00.72-.684V-9.36a4.446 4.446 0 013.888-2.268c1.872 0 3.06 1.3 3.06 3.636v7.308A.684.684 0 00297 0h2.016a.708.708 0 00.684-.684V-7.92c0-3.924-1.944-6.84-6.012-6.84a7.418 7.418 0 00-4.32 1.548v-11.3a.708.708 0 00-.684-.684H286.6a.708.708 0 00-.684.684zM303.156-7.2c0 4.14 2.88 7.56 7.236 7.56a8.272 8.272 0 005.328-1.8.559.559 0 00.072-.936l-1.008-1.368c-.288-.36-.54-.216-.972.036a6.142 6.142 0 01-3.2 1.044 4.169 4.169 0 01-4.14-3.852h9.792a.662.662 0 00.648-.612 8.832 8.832 0 00.072-.972 6.483 6.483 0 00-6.624-6.66c-4.324 0-7.204 3.492-7.204 7.56zm3.492-1.584a3.643 3.643 0 013.672-3.2 3.406 3.406 0 013.312 3.2zm13.788 8.1a.708.708 0 00.684.684h2.016a.708.708 0 00.684-.684v-8.784a4.086 4.086 0 013.564-2.16c2.016 0 3.06 1.26 3.06 3.564v7.38a.684.684 0 00.684.684h1.908a.708.708 0 00.684-.684v-7.452a10.068 10.068 0 00-.108-1.728 5.183 5.183 0 013.708-1.764c1.944 0 2.988 1.3 2.988 3.564v7.38a.684.684 0 00.684.684h2.016a.684.684 0 00.684-.684V-7.92c0-3.744-1.548-6.84-5.94-6.84a8.019 8.019 0 00-5.22 2.3 5.343 5.343 0 00-4.644-2.3 6.688 6.688 0 00-4.752 2.016l-.4-1.224a.628.628 0 00-.612-.432h-1.004a.708.708 0 00-.684.684zM347.148-7.2c0 4.14 2.88 7.56 7.236 7.56a8.272 8.272 0 005.328-1.8.559.559 0 00.072-.936l-1.008-1.368c-.288-.36-.54-.216-.972.036a6.142 6.142 0 01-3.2 1.044 4.169 4.169 0 01-4.14-3.852h9.792a.662.662 0 00.648-.612 8.832 8.832 0 00.072-.972 6.483 6.483 0 00-6.624-6.66c-4.324 0-7.204 3.492-7.204 7.56zm3.492-1.584a3.643 3.643 0 013.672-3.2 3.406 3.406 0 013.312 3.2z" transform="translate(24.008 305.732)"/></g></g></svg>