<svg xmlns="http://www.w3.org/2000/svg" viewBox="0 0 521.742 114.71"><defs><style>.cls-1{fill:#93c955}.cls-3{fill:#505050}.cls-6{fill:none}</style></defs><g id="Gruppe_92" data-name="Gruppe 92" transform="translate(-.258 -.153)"><g id="Seed" transform="translate(.258 .153)"><g id="Gruppe_31" data-name="Gruppe 31" transform="translate(12.651)"><g id="Gruppe_29" data-name="Gruppe 29" transform="translate(3.371 3.371)"><g id="Gruppe_27" data-name="Gruppe 27"><path id="Pfad_21" data-name="Pfad 21" class="cls-1" d="M49.9 79.907c0 22.963 13.378 41.607 29.81 41.607V38.3c-16.538 0-29.81 18.644-29.81 41.607z" transform="translate(-49.9 -38.3)"/></g><g id="Gruppe_28" data-name="Gruppe 28" transform="translate(29.704)"><path id="Pfad_22" data-name="Pfad 22" d="M78.1 38.3v83.32c16.432 0 29.81-18.644 29.81-41.607 0-23.069-13.378-41.713-29.81-41.713z" transform="translate(-78.1 -38.3)" fill="#86b74d"/></g></g><g id="Gruppe_30" data-name="Gruppe 30"><path id="Pfad_23" data-name="Pfad 23" class="cls-3" d="M79.775 125.056c-18.223 0-33.075-20.119-33.075-44.978C46.7 55.324 61.552 35.1 79.775 35.1s33.075 20.119 33.075 44.978c0 24.754-14.75 44.978-33.075 44.978zm0-83.32c-14.536 0-26.439 17.275-26.439 38.342 0 21.172 11.9 38.342 26.439 38.342 14.642 0 26.439-17.17 26.439-38.342.106-21.067-11.797-38.342-26.439-38.342z" transform="translate(-46.7 -35.1)"/></g></g><g id="Gruppe_42" data-name="Gruppe 42" transform="translate(0 34.023)"><g id="Gruppe_34" data-name="Gruppe 34" transform="translate(46.253 3.371)"><path id="Pfad_26" data-name="Pfad 26" d="M81.971 144.65a3.268 3.268 0 01-2.317-.948 3.629 3.629 0 01-1.054-2.422c.421-13.378 2.739-46.031 18.328-62.042a27.523 27.523 0 0117.7-8.637h.316a3.372 3.372 0 013.265 2.739c1.685 9.059 6 40.238-8.216 58.145-6.32 8.005-15.695 12.535-27.808 13.167z" transform="translate(-78.6 -70.6)" fill="#a87648"/></g><g id="Gruppe_41" data-name="Gruppe 41"><g id="Gruppe_40" data-name="Gruppe 40"><g id="Gruppe_35" data-name="Gruppe 35" transform="translate(3.642 3.371)"><path id="Pfad_27" data-name="Pfad 27" d="M76.123 144.65c-12.008-.737-21.383-5.161-27.808-13.167-14.22-17.907-9.9-48.981-8.216-58.145a3.372 3.372 0 013.265-2.738h.316a27.524 27.524 0 0117.7 8.637C76.966 95.143 79.389 127.9 79.6 141.28a3.05 3.05 0 01-1.053 2.423 3.268 3.268 0 01-2.317.948z" transform="translate(-38.147 -70.6)" fill="#bf9266"/></g><g id="Gruppe_39" data-name="Gruppe 39"><g id="Gruppe_36" data-name="Gruppe 36" transform="translate(6.957 6.636)"><path id="Pfad_28" data-name="Pfad 28" class="cls-6" d="M58.891 81.389A25.054 25.054 0 0043.2 73.7c-1.685 9.059-5.688 38.763 7.584 55.511 5.793 7.268 14.326 11.271 25.386 11.9-.214-10.636-2.111-44.237-17.279-59.722z" transform="translate(-41.294 -73.7)"/></g><g id="Gruppe_37" data-name="Gruppe 37" transform="translate(49.729 6.741)"><path id="Pfad_29" data-name="Pfad 29" class="cls-6" d="M99.175 81.384C84.007 96.868 82.111 130.47 81.9 141.214c11.06-.632 19.592-4.635 25.386-11.9 13.272-16.854 9.27-46.453 7.584-55.511a23.218 23.218 0 00-15.695 7.581z" transform="translate(-81.9 -73.8)"/></g><g id="Gruppe_38" data-name="Gruppe 38"><path id="Pfad_30" data-name="Pfad 30" class="cls-3" d="M123.814 72.877a6.659 6.659 0 00-6.531-5.477h-.632a31.277 31.277 0 00-19.8 9.585c-9.164 9.375-14.01 23.911-16.538 37.394-2.53-13.479-7.376-28.019-16.54-37.394A30.764 30.764 0 0043.97 67.4h-.632a6.642 6.642 0 00-6.531 5.477c-6.636 36.446 4 54.669 8.953 60.778 6.952 8.848 17.17 13.694 30.126 14.431h8.743c13.062-.737 23.174-5.583 30.126-14.431 5.056-6.214 15.695-24.437 9.059-60.778zm-72.681 56.67c-13.272-16.747-9.27-46.452-7.584-55.511a24.276 24.276 0 0115.695 7.689c15.168 15.484 17.064 49.086 17.275 59.83-11.061-.737-19.593-4.739-25.386-12.007zm58.566 0c-5.793 7.268-14.326 11.271-25.386 11.9.211-10.744 2.107-44.346 17.275-59.83a25.054 25.054 0 0115.695-7.689c1.685 9.167 5.794 38.766-7.583 55.62z" transform="translate(-34.69 -67.4)"/></g></g></g></g></g></g><path id="Pfad_58" data-name="Pfad 58" class="cls-1" d="M5.586-12.247c2.381 2.381 9.834 7.971 23.292 7.971 15.222 0 24.431-10.766 24.431-21.424 0-14.079-12.836-20.393-20.911-23.6-8.178-3.32-11.284-6.218-11.284-10.048 0-2.8 2.8-5.28 6.522-5.28 6.315 0 13.872 5.694 14.8 6.211.932.725 2.8-.207 3.52-1.346l5.279-7.971c.414-.725.621-2.588-.621-3.313-3.102-2.276-11.384-7.763-22.15-7.763-15.942 0-23.913 10.352-23.913 20.6 0 12.422 11.18 19.358 20.083 22.878 7.039 2.8 10.663 6.108 10.663 10.455 0 3.623-3 6.211-7.143 6.211-6.832 0-14.286-5.487-14.7-5.694a2.67 2.67 0 00-3.52.621l-4.865 8.594c-.829 1.445-.518 1.863.517 2.898zm60.352 4.969A1.966 1.966 0 0067.9-5.311h42.857a1.966 1.966 0 001.967-1.967v-11.284a1.966 1.966 0 00-1.967-1.967h-28.67V-34.5h23.6a1.966 1.966 0 001.967-1.967v-11.287a2.036 2.036 0 00-1.967-1.967h-23.6v-12.836h28.675a1.966 1.966 0 001.967-1.967v-11.284a1.966 1.966 0 00-1.967-1.967H67.9a1.966 1.966 0 00-1.967 1.967zm60.662 0a1.966 1.966 0 001.967 1.967h42.857a1.966 1.966 0 001.967-1.967v-11.284a1.966 1.966 0 00-1.967-1.967h-28.675V-34.5h23.6a1.966 1.966 0 001.967-1.967v-11.287a2.036 2.036 0 00-1.967-1.967h-23.6v-12.836h28.675a1.966 1.966 0 001.967-1.967v-11.284a1.966 1.966 0 00-1.967-1.967h-42.857a1.966 1.966 0 00-1.967 1.967zm60.662 0a1.946 1.946 0 001.863 1.967h25.259a36.382 36.382 0 0036.336-36.335 36.339 36.339 0 00-36.335-36.128h-25.259a1.946 1.946 0 00-1.863 1.967zm16.149-13.354v-41.925h9.938c11.7 0 20.186 9.213 20.186 20.911 0 11.8-8.489 21.014-20.186 21.014z" transform="translate(271.28 101.963)"/><path id="Pfad_59" data-name="Pfad 59" class="cls-3" d="M22.221-5.725a1.989 1.989 0 001.863 1.449h1.656a2.1 2.1 0 001.76-1.139l18.842-42.339h.311L65.6-5.415a2.1 2.1 0 001.76 1.139h1.656a1.989 1.989 0 001.863-1.449L90.441-75.29a1.8 1.8 0 00-1.863-2.484H76.466a2.127 2.127 0 00-1.866 1.448l-8.9 35.094h-.414L49.24-77.671a1.76 1.76 0 00-1.76-1.139h-1.863a1.973 1.973 0 00-1.76 1.139L27.812-41.232H27.4l-8.9-35.093a2.127 2.127 0 00-1.863-1.449H4.52a1.8 1.8 0 00-1.864 2.484zm79.3-1.553a1.966 1.966 0 001.967 1.967H115.7a2.036 2.036 0 001.967-1.967v-24.327h10.87A23.284 23.284 0 00151.621-54.9a23.153 23.153 0 00-23.188-22.878h-24.949a1.966 1.966 0 00-1.967 1.967zm16.149-39.441v-15.838h9.83a7.9 7.9 0 018.178 7.66 8.129 8.129 0 01-8.178 8.178z" transform="translate(116.602 101.963)"/></g></svg>