<svg xmlns="http://www.w3.org/2000/svg" viewBox="0 0 612.338 160.077"><defs><style>.cls-1{fill:#93c955}.cls-3{fill:#505050}.cls-6{fill:none}</style></defs><g id="Gruppe_91" data-name="Gruppe 91" transform="translate(.228 -.498)"><g id="Gruppe_90" data-name="Gruppe 90" transform="translate(-451.732 -1125.397)"><g id="Seed" transform="translate(451.504 1125.895)"><g id="Gruppe_31" data-name="Gruppe 31" transform="translate(51.627 38.803)"><g id="Gruppe_29" data-name="Gruppe 29" transform="translate(3.538 3.538)"><g id="Gruppe_27" data-name="Gruppe 27"><path id="Pfad_21" data-name="Pfad 21" class="cls-1" d="M49.9 81.967c0 24.1 14.04 43.667 31.286 43.667V38.3C63.829 38.3 49.9 57.867 49.9 81.967z" transform="translate(-49.9 -38.3)"/></g><g id="Gruppe_28" data-name="Gruppe 28" transform="translate(31.175)"><path id="Pfad_22" data-name="Pfad 22" d="M78.1 38.3v87.445c17.246 0 31.286-19.567 31.286-43.667 0-24.211-14.04-43.778-31.286-43.778z" transform="translate(-78.1 -38.3)" fill="#86b74d"/></g></g><g id="Gruppe_30" data-name="Gruppe 30"><path id="Pfad_23" data-name="Pfad 23" class="cls-3" d="M81.413 129.51c-19.125 0-34.713-21.115-34.713-47.205C46.7 56.326 62.288 35.1 81.413 35.1s34.713 21.115 34.713 47.205c0 25.979-15.477 47.205-34.713 47.205zm0-87.445c-15.256 0-27.748 18.13-27.748 40.24 0 22.221 12.492 40.24 27.748 40.24 15.367 0 27.748-18.02 27.748-40.24.111-22.11-12.382-40.24-27.748-40.24z" transform="translate(-46.7 -35.1)"/></g></g><g id="Gruppe_32" data-name="Gruppe 32" transform="translate(0 153.223)"><path id="Pfad_24" data-name="Pfad 24" class="cls-3" d="M168.037 145.454H3.427a3.427 3.427 0 110-6.854h164.61a3.427 3.427 0 110 6.854z" transform="translate(0 -138.6)"/></g><g id="Gruppe_42" data-name="Gruppe 42" transform="translate(38.35 74.511)"><g id="Gruppe_34" data-name="Gruppe 34" transform="translate(48.543 3.538)"><path id="Pfad_26" data-name="Pfad 26" d="M82.138 148.317a3.43 3.43 0 01-2.432-.995 3.809 3.809 0 01-1.105-2.543c.442-14.04 2.874-48.311 19.236-65.114a28.886 28.886 0 0118.571-9.065h.332a3.539 3.539 0 013.427 2.874c1.769 9.507 6.3 42.23-8.623 61.024-6.633 8.4-16.472 13.156-29.185 13.819z" transform="translate(-78.6 -70.6)" fill="#a87648"/></g><g id="Gruppe_41" data-name="Gruppe 41"><g id="Gruppe_40" data-name="Gruppe 40"><g id="Gruppe_35" data-name="Gruppe 35" transform="translate(3.822 3.538)"><path id="Pfad_27" data-name="Pfad 27" d="M78 148.317c-12.6-.774-22.442-5.417-29.185-13.819C33.894 115.7 38.427 83.092 40.2 73.474a3.539 3.539 0 013.423-2.874h.332a28.886 28.886 0 0118.572 9.065c16.361 16.693 18.9 51.074 19.125 65.114a3.2 3.2 0 01-1.105 2.543 3.43 3.43 0 01-2.432.995z" transform="translate(-38.147 -70.6)" fill="#bf9266"/></g><g id="Gruppe_39" data-name="Gruppe 39"><g id="Gruppe_36" data-name="Gruppe 36" transform="translate(7.301 6.965)"><path id="Pfad_28" data-name="Pfad 28" class="cls-6" d="M59.763 81.77a26.3 26.3 0 00-16.472-8.07c-1.769 9.507-5.97 40.683 7.96 58.26 6.08 7.628 15.035 11.829 26.643 12.492-.222-11.165-2.212-46.431-18.131-62.682z" transform="translate(-41.294 -73.7)"/></g><g id="Gruppe_37" data-name="Gruppe 37" transform="translate(52.191 7.075)"><path id="Pfad_29" data-name="Pfad 29" class="cls-6" d="M100.03 81.76c-15.919 16.251-17.909 51.516-18.13 62.792 11.608-.663 20.562-4.864 26.643-12.492 13.929-17.688 9.728-48.753 7.96-58.26a24.368 24.368 0 00-16.473 7.96z" transform="translate(-81.9 -73.8)"/></g><g id="Gruppe_38" data-name="Gruppe 38"><path id="Pfad_30" data-name="Pfad 30" class="cls-3" d="M128.227 73.149a6.988 6.988 0 00-6.854-5.749h-.663a32.825 32.825 0 00-20.784 10.06c-9.618 9.839-14.7 25.095-17.356 39.245-2.654-14.15-7.739-29.405-17.357-39.245A32.287 32.287 0 0044.43 67.4h-.663a6.971 6.971 0 00-6.854 5.749c-6.965 38.25 4.2 57.376 9.4 63.788 7.3 9.286 18.02 14.372 31.617 15.145h9.17c13.708-.774 24.321-5.859 31.617-15.145 5.309-6.523 16.474-25.648 9.51-63.788zm-76.28 59.476c-13.929-17.578-9.728-48.753-7.96-58.26a25.478 25.478 0 0116.472 8.07c15.919 16.251 17.909 51.517 18.13 62.793-11.607-.774-20.562-4.975-26.642-12.603zm61.466 0c-6.08 7.628-15.035 11.829-26.643 12.492.221-11.276 2.211-46.542 18.13-62.793a26.3 26.3 0 0116.472-8.07c1.769 9.618 6.081 40.683-7.959 58.371z" transform="translate(-34.69 -67.4)"/></g></g></g></g></g><g id="Gruppe_44" data-name="Gruppe 44" transform="translate(82.913 74.622)"><g id="Gruppe_43" data-name="Gruppe 43"><path id="Pfad_31" data-name="Pfad 31" class="cls-3" d="M78.427 124.986A3.444 3.444 0 0175 121.559V70.927a3.427 3.427 0 116.854 0v50.522a3.4 3.4 0 01-3.427 3.537z" transform="translate(-75 -67.5)"/></g></g><g id="Gruppe_45" data-name="Gruppe 45" transform="translate(82.25)"><path id="Pfad_32" data-name="Pfad 32" class="cls-3" d="M77.827 28.522a3.444 3.444 0 01-3.427-3.427V3.427a3.427 3.427 0 116.854 0v21.557a3.337 3.337 0 01-3.427 3.538z" transform="translate(-74.4)"/></g><g id="Gruppe_46" data-name="Gruppe 46" transform="translate(112.43 17.467)"><path id="Pfad_33" data-name="Pfad 33" class="cls-3" d="M105.127 30.724a3.43 3.43 0 01-2.432-.995 3.47 3.47 0 010-4.864l8.07-8.07a3.44 3.44 0 014.864 4.864l-8.07 8.07a3.43 3.43 0 01-2.432.995z" transform="translate(-101.7 -15.8)"/></g><g id="Gruppe_47" data-name="Gruppe 47" transform="translate(44.11 17.467)"><path id="Pfad_34" data-name="Pfad 34" class="cls-3" d="M51.4 30.724a3.43 3.43 0 01-2.432-.995l-8.07-8.07a3.44 3.44 0 114.864-4.864l8.07 8.07a3.47 3.47 0 010 4.864 3.43 3.43 0 01-2.432.995z" transform="translate(-39.9 -15.8)"/></g></g></g><path id="Pfad_56" data-name="Pfad 56" class="cls-1" d="M5.661-7.437C8.214-4.884 16.206 1.11 30.636 1.11c16.317 0 26.2-11.544 26.2-22.977 0-15.1-13.764-21.867-22.422-25.308-8.769-3.552-12.1-6.66-12.1-10.767 0-3 3-5.661 6.993-5.661 6.771 0 14.874 6.1 15.873 6.66 1 .777 3-.222 3.774-1.443l5.661-8.547c.444-.777.666-2.775-.666-3.552-3.33-2.442-12.21-8.325-23.754-8.325-17.095 0-25.644 11.1-25.644 22.089 0 13.32 11.988 20.757 21.534 24.531 7.548 3 11.433 6.549 11.433 11.211 0 3.885-3.219 6.66-7.659 6.66-7.326 0-15.318-5.883-15.762-6.105-.777-.555-2.886-.777-3.774.666l-5.217 9.213c-.888 1.554-.555 1.998.555 3.108zm64.713 5.328A2.108 2.108 0 0072.483 0h45.954a2.108 2.108 0 002.109-2.109v-12.1a2.108 2.108 0 00-2.109-2.109H87.69V-31.3H113a2.108 2.108 0 002.109-2.109v-12.1a2.183 2.183 0 00-2.109-2.11H87.69v-13.764h30.747a2.108 2.108 0 002.109-2.109v-12.1a2.108 2.108 0 00-2.109-2.109H72.483a2.108 2.108 0 00-2.109 2.109zm65.046 0A2.108 2.108 0 00137.529 0h45.954a2.108 2.108 0 002.109-2.109v-12.1a2.108 2.108 0 00-2.109-2.109h-30.747V-31.3h25.308a2.108 2.108 0 002.109-2.109v-12.1a2.183 2.183 0 00-2.109-2.109h-25.308v-13.765h30.747a2.108 2.108 0 002.109-2.109v-12.1a2.108 2.108 0 00-2.109-2.109h-45.954a2.108 2.108 0 00-2.109 2.109zm65.046 0a2.087 2.087 0 002 2.109h27.084a39.011 39.011 0 0038.961-38.961A38.965 38.965 0 00229.548-77.7h-27.084a2.087 2.087 0 00-2 2.109zm17.316-14.319v-44.955h10.656c12.543 0 21.645 9.879 21.645 22.422 0 12.654-9.1 22.533-21.645 22.533z" transform="translate(343.602 134.963)"/><path id="Pfad_57" data-name="Pfad 57" class="cls-3" d="M23.643-.444a2.132 2.132 0 002 1.554h1.776A2.254 2.254 0 0029.3-.111l20.2-45.4h.333l20.319 45.4a2.254 2.254 0 001.887 1.221h1.776a2.132 2.132 0 002-1.554l20.977-74.592a1.935 1.935 0 00-2-2.664H81.807a2.281 2.281 0 00-2 1.554l-9.544 37.629h-.444l-17.2-39.072a1.887 1.887 0 00-1.887-1.221h-2a2.116 2.116 0 00-1.887 1.221l-17.2 39.072h-.444l-9.554-37.629a2.281 2.281 0 00-2-1.554H4.662a1.935 1.935 0 00-2 2.664zm85.026-1.665A2.108 2.108 0 00110.778 0h13.1a2.183 2.183 0 002.109-2.109v-26.085h11.653a24.967 24.967 0 0024.753-24.975A24.826 24.826 0 00137.529-77.7h-26.751a2.108 2.108 0 00-2.109 2.109zM125.985-44.4v-16.983h10.545c4.773 0 8.769 3.552 8.769 8.214a8.717 8.717 0 01-8.769 8.769z" transform="translate(177.602 134.963)"/></g></svg>